<svg xmlns="http://www.w3.org/2000/svg" width="1200" height="630" viewBox="0 0 1200 630">
  <defs>
    <linearGradient id="bg" x1="0" y1="0" x2="1" y2="1">
      <stop offset="0" stop-color="#ffffff"/>
      <stop offset="0.58" stop-color="#fff8f6"/>
      <stop offset="1" stop-color="#f3f4f6"/>
    </linearGradient>
    <filter id="shadow" x="-30%" y="-30%" width="160%" height="160%">
      <feDropShadow dx="0" dy="18" stdDeviation="24" flood-color="#101828" flood-opacity="0.12"/>
    </filter>
  </defs>
  <rect width="1200" height="630" fill="url(#bg)"/>
  <rect x="74" y="68" width="1052" height="494" rx="38" fill="#ffffff" stroke="#e4e7ec" filter="url(#shadow)"/>
  <rect x="118" y="112" width="222" height="44" rx="22" fill="#fff1ee"/>
  <text x="144" y="141" fill="#9c1b12" font-family="DejaVu Sans, sans-serif" font-size="18" font-weight="700" letter-spacing="1">RAKUTEN MARKET DATA</text>
  <text x="118" y="249" fill="#18212f" font-family="DejaVu Sans, sans-serif" font-size="62" font-weight="800" letter-spacing="-2">EARPHONE DATA</text>
  <text x="118" y="321" fill="#18212f" font-family="DejaVu Sans, sans-serif" font-size="62" font-weight="800" letter-spacing="-2">RANKING</text>
  <text x="122" y="376" fill="#667085" font-family="DejaVu Sans, sans-serif" font-size="24">Reviews × review count, compared every day</text>
  <g transform="translate(122 428)">
    <rect width="166" height="52" rx="14" fill="#f8f9fb" stroke="#e4e7ec"/>
    <text x="26" y="33" fill="#475467" font-family="DejaVu Sans, sans-serif" font-size="17" font-weight="700">DAILY UPDATE</text>
    <rect x="180" width="190" height="52" rx="14" fill="#f8f9fb" stroke="#e4e7ec"/>
    <text x="207" y="33" fill="#475467" font-family="DejaVu Sans, sans-serif" font-size="17" font-weight="700">OBJECTIVE DATA</text>
  </g>
  <g transform="translate(820 170)">
    <circle cx="120" cy="120" r="122" fill="#fff1ee"/>
    <circle cx="120" cy="120" r="88" fill="#bf0000"/>
    <path d="M70 106c0-41 24-69 59-69 36 0 60 28 60 69v58c0 24-14 41-36 41h-11v-52h9c8 0 12-6 12-15v-31c0-25-13-42-34-42-20 0-33 17-33 42v31c0 9 4 15 12 15h9v52h-11c-22 0-36-17-36-41z" fill="#ffffff"/>
    <rect x="49" y="135" width="39" height="82" rx="19" fill="#ffffff"/>
    <rect x="171" y="135" width="39" height="82" rx="19" fill="#ffffff"/>
  </g>
  <circle cx="1084" cy="518" r="15" fill="#bf0000"/>
  <circle cx="1042" cy="518" r="9" fill="#d9a49e"/>
</svg>
